<?xml version="1.0" standalone="no"?>
<!DOCTYPE svg PUBLIC "-//W3C//DTD SVG 20010904//EN"
 "http://www.w3.org/TR/2001/REC-SVG-20010904/DTD/svg10.dtd">
<svg version="1.0" xmlns="http://www.w3.org/2000/svg"
 width="300.000000pt" height="168.000000pt" viewBox="0 0 300.000000 168.000000"
 preserveAspectRatio="xMidYMid meet">

<g transform="translate(0.000000,168.000000) scale(0.100000,-0.100000)"
fill="#000000" stroke="none">
<path d="M1010 845 c0 -87 3 -105 15 -105 11 0 15 12 15 44 l0 45 42 3 c59 4
63 28 4 28 -46 0 -46 0 -46 35 0 35 0 35 45 35 25 0 45 5 45 10 0 6 -27 10
-60 10 l-60 0 0 -105z"/>
<path d="M1926 858 c-21 -51 -40 -99 -43 -105 -3 -7 2 -13 11 -13 9 0 21 11
26 25 8 22 15 25 58 25 42 0 50 -3 60 -25 6 -14 18 -25 27 -25 13 0 12 7 -4
48 -56 139 -67 162 -82 162 -10 0 -28 -32 -53 -92z m78 0 l15 -38 -39 0 -39 0
17 45 c18 49 23 48 46 -7z"/>
<path d="M2210 903 c0 -37 -3 -44 -12 -35 -39 39 -115 -14 -104 -73 9 -41 29
-58 68 -57 87 2 78 -10 78 107 0 87 -3 105 -15 105 -11 0 -15 -12 -15 -47z
m-19 -53 c23 -13 26 -62 4 -80 -23 -19 -64 -4 -71 27 -5 20 -2 31 16 45 26 21
26 21 51 8z"/>
<path d="M2532 933 c4 -21 33 -25 33 -3 0 8 -8 16 -18 18 -14 3 -18 -1 -15
-15z"/>
<path d="M1727 933 c-4 -3 -7 -16 -7 -29 0 -12 -6 -25 -12 -27 -10 -4 -10 -7
-1 -14 6 -5 13 -30 15 -57 2 -33 9 -53 20 -60 21 -13 36 0 20 16 -18 18 -15
87 3 94 8 4 15 10 15 15 0 5 -7 9 -15 9 -10 0 -15 10 -15 30 0 29 -9 38 -23
23z"/>
<path d="M1168 863 c-57 -65 4 -155 82 -123 53 22 65 69 29 114 -25 32 -87 37
-111 9z m82 -21 c18 -14 21 -25 16 -45 -8 -35 -49 -46 -76 -22 -25 23 -25 40
0 65 25 25 32 25 60 2z"/>
<path d="M1330 810 c0 -54 3 -70 14 -70 11 0 16 14 18 48 2 38 7 49 26 57 24
10 30 35 9 35 -7 0 -18 -5 -25 -12 -9 -9 -12 -9 -12 0 0 7 -7 12 -15 12 -12 0
-15 -14 -15 -70z"/>
<path d="M1437 862 c-21 -23 -22 -86 -1 -106 25 -25 61 -30 89 -12 30 20 24
42 -7 25 -24 -13 -64 -5 -72 16 -4 12 4 15 48 15 29 0 55 3 59 6 8 8 -11 57
-26 66 -22 14 -74 8 -90 -10z m67 -8 c30 -12 18 -34 -19 -34 -24 0 -35 5 -35
14 0 21 27 31 54 20z"/>
<path d="M1590 865 c-17 -20 -6 -42 30 -63 43 -24 40 -46 -5 -39 -44 7 -49
-18 -6 -28 71 -15 98 47 35 84 -39 23 -37 43 3 39 14 -2 28 3 30 10 7 18 -71
16 -87 -3z"/>
<path d="M2280 810 c0 -56 3 -70 15 -70 11 0 15 12 15 50 0 37 4 52 18 58 31
17 42 3 42 -54 0 -41 4 -54 15 -54 11 0 15 12 15 44 0 38 18 76 35 76 17 0 35
-38 35 -76 0 -24 5 -44 10 -44 14 0 12 114 -2 128 -7 7 -21 12 -33 12 -12 0
-26 -5 -33 -12 -9 -9 -15 -9 -24 0 -7 7 -21 12 -33 12 -12 0 -26 -5 -33 -12
-9 -9 -12 -9 -12 0 0 7 -7 12 -15 12 -12 0 -15 -14 -15 -70z"/>
<path d="M2530 810 c0 -56 3 -70 15 -70 12 0 15 14 15 70 0 56 -3 70 -15 70
-12 0 -15 -14 -15 -70z"/>
<path d="M2600 810 c0 -56 3 -70 15 -70 11 0 15 12 15 44 0 42 18 76 40 76 24
0 42 -35 38 -77 -2 -30 1 -43 9 -43 17 0 18 111 1 128 -15 15 -61 15 -76 0 -9
-9 -12 -9 -12 0 0 7 -7 12 -15 12 -12 0 -15 -14 -15 -70z"/>
</g>
</svg>
