<?xml version="1.0" standalone="no"?>
<!DOCTYPE svg PUBLIC "-//W3C//DTD SVG 20010904//EN"
 "http://www.w3.org/TR/2001/REC-SVG-20010904/DTD/svg10.dtd">
<svg version="1.0" xmlns="http://www.w3.org/2000/svg"
 width="300.000000pt" height="168.000000pt" viewBox="0 0 300.000000 168.000000"
 preserveAspectRatio="xMidYMid meet">

<g transform="translate(0.000000,168.000000) scale(0.100000,-0.100000)"
fill="#000000" stroke="none">
<path d="M1379 1640 c-212 -54 -375 -217 -419 -421 -18 -80 -8 -229 18 -304
28 -75 81 -156 144 -216 57 -54 178 -122 211 -117 19 3 22 10 25 61 l3 57 -53
0 c-65 0 -97 16 -123 59 -11 18 -37 53 -59 77 -29 33 -35 45 -24 49 24 10 65
-12 95 -50 63 -81 148 -89 178 -18 19 44 19 43 -5 43 -10 0 -44 9 -74 21 -64
23 -116 77 -134 138 -21 68 -15 161 13 216 18 36 23 59 19 89 -3 23 -1 55 4
71 8 27 13 30 43 27 18 -1 52 -13 76 -26 40 -23 47 -24 113 -13 50 8 90 8 140
0 66 -11 73 -10 113 12 23 13 57 26 74 30 30 6 34 4 44 -22 6 -15 9 -51 7 -78
-2 -35 2 -59 14 -76 56 -86 42 -237 -30 -312 -34 -37 -89 -65 -141 -73 -44 -7
-48 -13 -28 -32 7 -8 14 -56 17 -130 5 -112 6 -117 27 -120 13 -2 54 13 92 33
262 138 367 463 236 730 -59 121 -170 221 -301 271 -55 22 -90 27 -174 30 -58
2 -121 -1 -141 -6z"/>
<path d="M692 493 c-71 -35 -107 -126 -100 -253 8 -146 73 -210 210 -210 38 0
84 6 103 14 l34 14 3 121 3 121 -82 0 -83 0 0 -40 c0 -39 1 -40 35 -40 l35 0
0 -50 0 -50 -48 0 c-78 0 -112 44 -112 146 0 67 20 117 54 140 21 13 41 16 95
12 l69 -5 10 39 c10 37 9 40 -15 49 -40 15 -174 11 -211 -8z"/>
<path d="M1394 487 c-2 -7 -3 -111 -2 -231 l3 -219 47 -1 47 -1 3 100 3 100
65 0 65 0 3 -97 3 -98 49 0 50 0 0 230 0 230 -50 0 -50 0 0 -90 0 -91 -67 3
-68 3 -3 88 -3 87 -45 0 c-27 0 -47 -5 -50 -13z"/>
<path d="M2110 270 l0 -230 35 0 c19 0 35 5 35 10 0 6 13 4 30 -5 16 -8 52
-15 80 -15 67 0 105 34 115 104 10 64 0 148 -19 179 -29 43 -93 59 -150 37
l-26 -10 0 80 0 80 -50 0 -50 0 0 -230z m184 -6 c21 -21 22 -126 2 -143 -8 -7
-30 -11 -48 -9 l-33 3 -3 74 c-3 79 3 91 45 91 12 0 29 -7 37 -16z"/>
<path d="M1010 470 c-11 -11 -20 -26 -20 -33 0 -24 31 -57 55 -57 52 0 74 65
33 94 -30 21 -44 20 -68 -4z"/>
<path d="M1178 393 c-3 -41 -6 -48 -25 -51 -19 -3 -23 -10 -23 -38 0 -29 3
-34 24 -34 24 0 24 -2 28 -96 3 -91 5 -97 31 -120 22 -19 39 -24 83 -24 l54 0
0 39 c0 37 -2 40 -32 43 l-33 3 -3 78 -3 77 36 0 c34 0 35 1 35 40 0 39 -1 40
-35 40 -35 0 -35 0 -35 45 l0 45 -49 0 -50 0 -3 -47z"/>
<path d="M1000 196 l0 -154 45 -4 45 -3 0 157 0 158 -45 0 -45 0 0 -154z"/>
<path d="M1772 214 c3 -135 3 -136 31 -160 32 -27 99 -33 157 -13 22 8 34 8
39 1 3 -5 18 -9 34 -9 l27 2 0 158 0 157 -45 0 -45 0 0 -114 0 -114 -28 -10
c-15 -5 -37 -6 -50 -1 -21 8 -22 13 -22 124 l0 115 -51 0 -51 0 4 -136z"/>
</g>
</svg>
