<?xml version="1.0" standalone="no"?>
<!DOCTYPE svg PUBLIC "-//W3C//DTD SVG 20010904//EN"
 "http://www.w3.org/TR/2001/REC-SVG-20010904/DTD/svg10.dtd">
<svg version="1.0" xmlns="http://www.w3.org/2000/svg"
 width="225.000000pt" height="225.000000pt" viewBox="0 0 225.000000 225.000000"
 preserveAspectRatio="xMidYMid meet">

<g transform="translate(0.000000,225.000000) scale(0.100000,-0.100000)"
fill="#000000" stroke="none">
<path d="M480 2100 l0 -150 50 0 50 0 0 50 0 50 45 0 45 0 0 -50 0 -50 50 0
50 0 0 150 0 150 -50 0 -50 0 0 -50 0 -50 -45 0 -45 0 0 50 0 50 -50 0 -50 0
0 -150z"/>
<path d="M820 2200 l0 -50 45 0 45 0 0 -100 0 -100 50 0 50 0 0 100 0 100 45
0 45 0 0 50 0 50 -140 0 -140 0 0 -50z"/>
<path d="M1140 2100 l0 -150 50 0 50 0 0 73 0 72 31 -47 c17 -27 35 -48 39
-48 4 0 22 21 39 48 l31 47 0 -72 0 -73 50 0 50 0 0 150 0 150 -52 0 -53 0
-28 -50 c-16 -28 -31 -50 -35 -50 -5 0 -21 23 -37 50 l-29 50 -53 0 -53 0 0
-150z"/>
<path d="M1530 2100 l0 -150 126 0 125 0 -3 48 -3 47 -72 3 -73 3 0 99 0 100
-50 0 -50 0 0 -150z"/>
<path d="M336 1758 c5 -45 64 -712 110 -1253 15 -171 30 -313 34 -318 8 -9
619 -179 645 -179 26 0 638 171 646 180 3 4 36 356 73 782 37 426 70 787 72
803 l6 27 -796 0 -796 0 6 -42z m1290 -315 c-3 -21 -8 -68 -11 -105 l-7 -68
-380 0 -380 0 7 -92 c4 -51 9 -96 12 -101 2 -4 166 -4 364 0 306 5 359 4 359
-8 1 -46 -53 -605 -59 -610 -3 -4 -96 -32 -206 -62 l-201 -55 -204 57 c-170
48 -205 61 -208 77 -9 62 -27 295 -23 299 10 11 190 5 197 -6 4 -7 9 -43 12
-81 6 -80 -5 -72 137 -108 l91 -24 104 29 c58 15 107 30 110 32 2 2 9 60 15
128 l10 125 -345 2 -345 3 -21 240 c-12 132 -25 268 -28 303 l-7 62 507 0 506
0 -6 -37z"/>
</g>
</svg>
