<?xml version="1.0" standalone="no"?>
<!DOCTYPE svg PUBLIC "-//W3C//DTD SVG 20010904//EN"
 "http://www.w3.org/TR/2001/REC-SVG-20010904/DTD/svg10.dtd">
<svg version="1.0" xmlns="http://www.w3.org/2000/svg"
 width="389.000000pt" height="129.000000pt" viewBox="0 0 389.000000 129.000000"
 preserveAspectRatio="xMidYMid meet">

<g transform="translate(0.000000,129.000000) scale(0.100000,-0.100000)"
fill="#000000" stroke="none">
<path d="M303 1152 c0 -11 5 -18 9 -16 4 3 8 0 8 -7 0 -7 3 -10 6 -6 3 3 -1
16 -9 28 -16 22 -16 22 -14 1z"/>
<path d="M329 1103 c-13 -16 -12 -17 4 -4 9 7 17 15 17 17 0 8 -8 3 -21 -13z"/>
<path d="M360 1092 c0 -6 5 -14 10 -17 6 -4 7 -12 4 -18 -4 -7 -4 -9 1 -5 4 4
15 2 24 -4 9 -7 5 1 -9 17 -14 17 -26 32 -27 34 -2 2 -3 -1 -3 -7z"/>
<path d="M405 1020 c-3 -5 -1 -10 4 -10 6 0 11 5 11 10 0 6 -2 10 -4 10 -3 0
-8 -4 -11 -10z"/>
<path d="M131 987 c-13 -21 -12 -21 5 -5 10 10 16 20 13 22 -3 3 -11 -5 -18
-17z"/>
<path d="M421 986 c-8 -10 -9 -16 -1 -21 5 -3 10 -1 10 6 0 8 5 7 18 -2 16
-13 16 -13 2 6 -8 11 -15 21 -16 23 -1 1 -7 -4 -13 -12z"/>
<path d="M414 939 c-3 -6 -1 -16 5 -22 8 -8 11 -5 11 11 0 24 -5 28 -16 11z"/>
<path d="M459 938 c-4 -39 -4 -43 9 -40 6 1 12 -3 12 -10 0 -6 2 -9 5 -6 3 3
-1 20 -9 39 -10 22 -16 28 -17 17z"/>
<path d="M81 854 c0 -11 3 -14 6 -6 3 7 2 16 -1 19 -3 4 -6 -2 -5 -13z"/>
<path d="M496 828 c3 -29 0 -55 -8 -67 -14 -23 -8 -34 16 -25 18 7 23 74 5 74
-5 0 -8 4 -5 9 4 5 2 20 -4 33 -7 18 -8 12 -4 -24z"/>
<path d="M70 805 c0 -8 2 -15 4 -15 2 0 6 7 10 15 3 8 1 15 -4 15 -6 0 -10 -7
-10 -15z"/>
<path d="M62 725 c0 -16 2 -22 5 -12 2 9 2 23 0 30 -3 6 -5 -1 -5 -18z"/>
<path d="M498 688 c-1 -24 -1 -52 0 -63 3 -52 -5 -60 -53 -57 -28 3 -45 0 -45
-7 0 -6 -18 -11 -40 -11 l-40 0 -1 53 c-1 30 -6 2 -12 -66 -9 -120 -4 -207 14
-207 5 0 9 5 9 10 0 6 5 10 12 10 6 0 3 -9 -7 -20 -10 -11 -14 -20 -8 -20 20
0 125 120 119 136 -3 8 -2 13 3 10 10 -7 43 60 60 119 14 50 14 68 1 60 -5 -3
-10 -1 -10 4 0 6 5 11 10 11 6 0 10 18 10 40 0 54 -20 51 -22 -2z m-28 -202
c0 -3 -4 -8 -10 -11 -5 -3 -10 -1 -10 4 0 6 5 11 10 11 6 0 10 -2 10 -4z m-55
-65 c3 -5 2 -12 -3 -15 -5 -3 -9 1 -9 9 0 17 3 19 12 6z m-65 -36 c-7 -9 -15
-13 -19 -10 -3 3 1 10 9 15 21 14 24 12 10 -5z"/>
<path d="M865 638 c-16 -6 -39 -17 -50 -24 -27 -19 -34 -17 -28 7 6 20 3 21
-23 15 -16 -3 -44 -9 -61 -12 -41 -8 -42 -16 -3 -31 l31 -12 -3 -103 c-3 -96
-5 -104 -25 -113 -45 -19 -25 -31 52 -31 54 0 75 4 75 13 0 7 -7 13 -15 13
-24 0 -35 43 -35 130 0 78 1 80 30 95 44 23 87 19 105 -9 12 -18 15 -46 13
-117 -3 -89 -4 -94 -25 -97 -13 -2 -23 -9 -23 -16 0 -9 23 -12 80 -12 56 0 80
4 80 12 0 7 -10 14 -22 16 -22 3 -23 8 -26 109 -3 105 -2 106 23 117 38 18 72
15 95 -8 17 -17 20 -33 20 -116 0 -87 -2 -96 -20 -101 -11 -3 -20 -10 -20 -17
0 -7 26 -11 75 -11 50 0 75 4 75 11 0 7 -11 15 -24 18 -23 6 -24 9 -28 115 -3
98 -5 112 -26 134 -35 37 -69 40 -130 10 l-53 -25 -20 21 c-11 12 -24 21 -29
21 -4 0 -14 2 -22 4 -7 3 -26 0 -43 -6z"/>
<path d="M1426 639 c-109 -26 -156 -127 -107 -235 30 -67 124 -94 204 -60 96
41 125 172 55 252 -24 27 -85 57 -108 53 -3 -1 -22 -5 -44 -10z m78 -47 c48
-43 62 -158 25 -206 -16 -20 -29 -26 -58 -26 -48 0 -85 37 -103 103 -30 113
59 197 136 129z"/>
<path d="M1851 625 c-52 -30 -54 -30 -46 -5 7 23 3 24 -65 9 -56 -12 -62 -20
-25 -37 25 -12 26 -13 23 -119 -3 -103 -4 -108 -25 -111 -13 -2 -23 -10 -23
-18 0 -12 15 -14 82 -12 51 2 83 7 85 15 2 6 -6 13 -19 15 -21 3 -24 10 -30
78 -9 101 -2 135 28 149 38 17 63 13 90 -14 23 -23 25 -30 22 -117 -3 -89 -4
-93 -26 -96 -13 -2 -21 -9 -19 -15 5 -17 159 -16 165 1 2 7 -5 12 -15 12 -36
0 -43 20 -43 117 0 105 -13 142 -55 161 -37 17 -54 15 -104 -13z"/>
<path d="M2245 640 c-72 -16 -105 -53 -105 -118 0 -43 23 -79 61 -96 10 -4 11
-7 2 -12 -7 -3 -23 -14 -35 -23 l-22 -18 27 -26 28 -25 -31 -22 c-16 -12 -35
-30 -41 -42 -15 -28 6 -75 44 -95 31 -15 111 -19 151 -7 34 10 85 53 101 84
21 40 19 64 -8 95 -19 23 -34 28 -100 35 -43 5 -82 12 -87 15 -18 11 2 33 38
40 76 14 127 71 120 133 -2 22 2 28 20 30 12 2 27 13 33 24 10 18 8 19 -18 14
-16 -4 -56 -1 -88 7 -33 7 -73 11 -90 7z m60 -45 c49 -48 23 -145 -38 -145
-36 0 -69 42 -71 89 -2 74 60 106 109 56z m39 -289 c79 -33 37 -126 -57 -126
-90 0 -136 63 -85 117 25 27 89 31 142 9z"/>
<path d="M2626 639 c-78 -18 -126 -76 -126 -154 0 -84 52 -145 129 -153 98 -9
173 44 187 133 17 118 -72 200 -190 174z m78 -47 c50 -46 64 -157 25 -206 -28
-36 -78 -36 -119 2 -42 38 -60 121 -37 175 24 57 84 70 131 29z"/>
<path d="M81 574 c0 -11 3 -14 6 -6 3 7 2 16 -1 19 -3 4 -6 -2 -5 -13z"/>
<path d="M112 538 c-15 -15 -16 -32 -2 -23 6 3 10 0 10 -7 0 -8 5 -5 11 5 14
23 -2 42 -19 25z"/>
<path d="M125 480 c-6 -10 1 -14 19 -11 5 1 6 -5 3 -13 -4 -9 -3 -17 1 -20 4
-3 8 4 9 14 2 23 -22 46 -32 30z"/>
<path d="M240 331 c14 -11 30 -20 35 -20 6 0 4 3 -3 6 -6 2 -9 10 -5 16 3 7 3
9 -2 5 -4 -4 -17 -3 -29 3 -17 8 -16 6 4 -10z"/>
</g>
</svg>
