<?xml version="1.0" standalone="no"?>
<!DOCTYPE svg PUBLIC "-//W3C//DTD SVG 20010904//EN"
 "http://www.w3.org/TR/2001/REC-SVG-20010904/DTD/svg10.dtd">
<svg version="1.0" xmlns="http://www.w3.org/2000/svg"
 width="287.000000pt" height="175.000000pt" viewBox="0 0 287.000000 175.000000"
 preserveAspectRatio="xMidYMid meet">

<g transform="translate(0.000000,175.000000) scale(0.100000,-0.100000)"
fill="#000000" stroke="none">
<path d="M1917 1743 c-4 -3 -7 -105 -7 -225 0 -120 -3 -218 -6 -218 -3 0 -25
12 -50 26 l-44 26 -152 -89 -153 -88 -3 -171 c-2 -153 -1 -172 15 -186 23 -20
282 -168 294 -168 12 0 268 148 292 168 16 14 17 47 17 418 l0 403 -27 19
c-30 20 -159 92 -165 92 -3 0 -8 -3 -11 -7z m-9 -744 l3 -64 -51 -28 -50 -28
-50 28 -50 28 0 62 0 61 48 30 47 30 50 -28 50 -27 3 -64z"/>
<path d="M145 1267 l-140 -82 -3 -228 c-3 -266 -11 -252 113 -179 l80 48 5
117 c5 111 6 119 30 137 55 42 77 45 128 17 l47 -26 5 -122 5 -122 85 -48 c47
-27 91 -49 98 -49 9 0 12 52 12 228 l0 228 -143 82 c-79 45 -152 82 -163 81
-10 0 -82 -37 -159 -82z"/>
<path d="M2405 1266 l-140 -82 -3 -181 -2 -180 144 -81 c79 -45 150 -82 158
-82 18 0 181 93 185 105 1 6 -62 48 -142 93 l-145 84 0 61 0 62 50 28 50 28
50 -28 c49 -27 50 -29 50 -75 0 -26 5 -50 10 -53 10 -6 115 47 173 87 23 17
27 26 27 66 0 26 -4 52 -8 58 -11 16 -287 174 -303 173 -8 -1 -77 -38 -154
-83z"/>
<path d="M761 1143 c1 -24 3 -30 6 -15 2 12 9 19 15 16 6 -4 6 2 -1 15 -17 30
-21 26 -20 -16z"/>
<path d="M1311 1099 c-23 -44 -48 -78 -55 -76 -8 3 -11 -33 -11 -129 l0 -133
48 26 c26 15 52 32 57 38 7 8 9 79 8 184 l-3 171 -44 -81z m37 -214 c-3 -3 -9
2 -12 12 -6 14 -5 15 5 6 7 -7 10 -15 7 -18z"/>
<path d="M812 918 c-29 -50 -51 -92 -50 -93 14 -13 290 -167 292 -164 3 3
-152 291 -181 336 -5 9 -26 -18 -61 -79z"/>
</g>
</svg>
